<svg xmlns="http://www.w3.org/2000/svg" viewBox="0 0 512 512" fill="none">
  <!-- Pixora Favicon — Geometric "P" with pixel accent -->
  <!-- Background: transparent -->
  
  <!-- Main rounded square base -->
  <rect x="48" y="48" width="416" height="416" rx="96" fill="#3B82F6"/>
  
  <!-- Stylized "P" letter -->
  <path d="M176 144h112c52.8 0 96 43.2 96 96s-43.2 96-96 96H248v80c0 13.2-10.8 24-24 24h-24c-13.2 0-24-10.8-24-24V168c0-13.2 10.8-24 24-24z" fill="white"/>
  <path d="M248 272h40c26.4 0 48-21.6 48-48s-21.6-48-48-48h-40v96z" fill="#3B82F6"/>
  
  <!-- Pixel accent dots (brand identity) -->
  <rect x="336" y="336" width="40" height="40" rx="8" fill="white" opacity="0.9"/>
  <rect x="384" y="336" width="40" height="40" rx="8" fill="white" opacity="0.5"/>
  <rect x="336" y="384" width="40" height="40" rx="8" fill="white" opacity="0.3"/>
</svg>
